<mxfile host="app.diagrams.net" agent="Mozilla/5.0 (Linux; Android 10; K) AppleWebKit/537.36 (KHTML, like Gecko) Chrome/137.0.0.0 Mobile Safari/537.36" version="27.1.3">
  <diagram name="Page-1" id="DjgQMxx4YX86uawwIfCN">
    <mxGraphModel dx="684" dy="1342" grid="1" gridSize="10" guides="1" tooltips="1" connect="1" arrows="1" fold="1" page="1" pageScale="1" pageWidth="850" pageHeight="1100" math="0" shadow="0">
      <root>
        <mxCell id="0" />
        <mxCell id="1" parent="0" />
        <mxCell id="o5h4FEqRYWTWmx7VqW2a-1" value="Can you find what lives in time" style="swimlane;whiteSpace=wrap;html=1;fillColor=#76608a;fontColor=#ffffff;strokeColor=#432D57;" vertex="1" parent="1">
          <mxGeometry x="40" y="40" width="440" height="200" as="geometry" />
        </mxCell>
        <mxCell id="o5h4FEqRYWTWmx7VqW2a-2" value="&lt;ul&gt;&lt;li&gt;Time on the clock that he sets in the documentary&lt;/li&gt;&lt;/ul&gt;" style="text;html=1;align=left;verticalAlign=middle;resizable=0;points=[];autosize=1;strokeColor=none;fillColor=none;" vertex="1" parent="o5h4FEqRYWTWmx7VqW2a-1">
          <mxGeometry x="10" y="33" width="330" height="50" as="geometry" />
        </mxCell>
        <mxCell id="o5h4FEqRYWTWmx7VqW2a-3" value="Flowing through each measure rhyme?" style="swimlane;whiteSpace=wrap;html=1;fillColor=#76608a;fontColor=#ffffff;strokeColor=#432D57;" vertex="1" parent="1">
          <mxGeometry x="40" y="320" width="440" height="200" as="geometry" />
        </mxCell>
        <mxCell id="o5h4FEqRYWTWmx7VqW2a-26" value="Flowing like a river" style="text;html=1;align=center;verticalAlign=middle;resizable=0;points=[];autosize=1;strokeColor=none;fillColor=none;fontSize=16;" vertex="1" parent="o5h4FEqRYWTWmx7VqW2a-3">
          <mxGeometry x="30" y="50" width="150" height="30" as="geometry" />
        </mxCell>
        <mxCell id="o5h4FEqRYWTWmx7VqW2a-4" value="Wisdom waits in shadowed sight" style="swimlane;whiteSpace=wrap;html=1;fillColor=#76608a;fontColor=#ffffff;strokeColor=#432D57;" vertex="1" parent="1">
          <mxGeometry x="40" y="600" width="440" height="200" as="geometry" />
        </mxCell>
        <mxCell id="o5h4FEqRYWTWmx7VqW2a-5" value="For those who read these words just right" style="swimlane;whiteSpace=wrap;html=1;fillColor=#76608a;fontColor=#ffffff;strokeColor=#432D57;" vertex="1" parent="1">
          <mxGeometry x="40" y="880" width="440" height="200" as="geometry" />
        </mxCell>
        <mxCell id="o5h4FEqRYWTWmx7VqW2a-6" value="As hope surges, clear and bright" style="swimlane;whiteSpace=wrap;html=1;fillColor=#fa6800;fontColor=#000000;strokeColor=#C73500;" vertex="1" parent="1">
          <mxGeometry x="560" y="40" width="440" height="200" as="geometry" />
        </mxCell>
        <mxCell id="o5h4FEqRYWTWmx7VqW2a-7" value="Walk near waters&#39; silent flight." style="swimlane;whiteSpace=wrap;html=1;fillColor=#fa6800;fontColor=#000000;strokeColor=#C73500;" vertex="1" parent="1">
          <mxGeometry x="560" y="320" width="440" height="200" as="geometry" />
        </mxCell>
        <mxCell id="o5h4FEqRYWTWmx7VqW2a-8" value="Clouds? Waterfall?" style="text;html=1;align=center;verticalAlign=middle;resizable=0;points=[];autosize=1;strokeColor=none;fillColor=none;" vertex="1" parent="o5h4FEqRYWTWmx7VqW2a-7">
          <mxGeometry x="20" y="40" width="120" height="30" as="geometry" />
        </mxCell>
        <mxCell id="o5h4FEqRYWTWmx7VqW2a-9" value="Round the bend, past the Hole," style="swimlane;whiteSpace=wrap;html=1;fillColor=#fa6800;fontColor=#000000;strokeColor=#C73500;" vertex="1" parent="1">
          <mxGeometry x="560" y="600" width="440" height="200" as="geometry" />
        </mxCell>
        <mxCell id="o5h4FEqRYWTWmx7VqW2a-10" value="I wait for you to cast your pole." style="swimlane;whiteSpace=wrap;html=1;fillColor=#fa6800;fontColor=#000000;strokeColor=#C73500;" vertex="1" parent="1">
          <mxGeometry x="560" y="880" width="440" height="200" as="geometry" />
        </mxCell>
        <mxCell id="o5h4FEqRYWTWmx7VqW2a-11" value="&lt;ul&gt;&lt;li&gt;Fishing pole&lt;/li&gt;&lt;li&gt;Magnetic pole, like on a compass&lt;/li&gt;&lt;/ul&gt;" style="text;html=1;align=left;verticalAlign=middle;resizable=0;points=[];autosize=1;strokeColor=none;fillColor=none;" vertex="1" parent="o5h4FEqRYWTWmx7VqW2a-10">
          <mxGeometry y="40" width="240" height="70" as="geometry" />
        </mxCell>
        <mxCell id="o5h4FEqRYWTWmx7VqW2a-12" value="In ursa east his realm awaits;" style="swimlane;whiteSpace=wrap;html=1;fillColor=#d80073;fontColor=#ffffff;strokeColor=#A50040;" vertex="1" parent="1">
          <mxGeometry x="1080" y="40" width="480" height="200" as="geometry" />
        </mxCell>
        <mxCell id="o5h4FEqRYWTWmx7VqW2a-13" value="&lt;ul&gt;&lt;li&gt;Ursa minor or ursa major, could be related to Polaris as the north star&lt;/li&gt;&lt;li&gt;Simply bear east&lt;/li&gt;&lt;li&gt;Who is &quot;him&quot; ?&lt;/li&gt;&lt;/ul&gt;" style="text;html=1;align=left;verticalAlign=middle;resizable=0;points=[];autosize=1;strokeColor=none;fillColor=none;" vertex="1" parent="o5h4FEqRYWTWmx7VqW2a-12">
          <mxGeometry x="10" y="32.999999999999986" width="430" height="80" as="geometry" />
        </mxCell>
        <mxCell id="o5h4FEqRYWTWmx7VqW2a-14" value="His bride stands guard at ancient gates." style="swimlane;whiteSpace=wrap;html=1;fillColor=#d80073;fontColor=#ffffff;strokeColor=#A50040;" vertex="1" parent="1">
          <mxGeometry x="1080" y="320" width="480" height="200" as="geometry" />
        </mxCell>
        <mxCell id="o5h4FEqRYWTWmx7VqW2a-15" value="Her foot of three at twenty degree," style="swimlane;whiteSpace=wrap;html=1;fillColor=#d80073;fontColor=#ffffff;strokeColor=#A50040;" vertex="1" parent="1">
          <mxGeometry x="1080" y="600" width="480" height="200" as="geometry" />
        </mxCell>
        <mxCell id="o5h4FEqRYWTWmx7VqW2a-16" value="Return her face to find the place." style="swimlane;whiteSpace=wrap;html=1;fillColor=#d80073;fontColor=#ffffff;strokeColor=#A50040;" vertex="1" parent="1">
          <mxGeometry x="1080" y="880" width="480" height="200" as="geometry" />
        </mxCell>
        <mxCell id="o5h4FEqRYWTWmx7VqW2a-17" value="Double arcs on granite bold," style="swimlane;whiteSpace=wrap;html=1;fillColor=#008a00;fontColor=#ffffff;strokeColor=#005700;" vertex="1" parent="1">
          <mxGeometry x="1640" y="40" width="480" height="200" as="geometry" />
        </mxCell>
        <mxCell id="o5h4FEqRYWTWmx7VqW2a-18" value="Where secrets of the past still hold." style="swimlane;whiteSpace=wrap;html=1;fillColor=#008a00;fontColor=#ffffff;strokeColor=#005700;" vertex="1" parent="1">
          <mxGeometry x="1640" y="320" width="480" height="200" as="geometry" />
        </mxCell>
        <mxCell id="o5h4FEqRYWTWmx7VqW2a-19" value="Beyond the reach of time&#39;s swift race," style="swimlane;whiteSpace=wrap;html=1;fillColor=#008a00;fontColor=#ffffff;strokeColor=#005700;" vertex="1" parent="1">
          <mxGeometry x="1640" y="600" width="480" height="200" as="geometry" />
        </mxCell>
        <mxCell id="o5h4FEqRYWTWmx7VqW2a-20" value="Wonder guards this sacred space." style="swimlane;whiteSpace=wrap;html=1;fillColor=#008a00;fontColor=#ffffff;strokeColor=#005700;" vertex="1" parent="1">
          <mxGeometry x="1640" y="880" width="480" height="200" as="geometry" />
        </mxCell>
        <mxCell id="o5h4FEqRYWTWmx7VqW2a-21" value="&lt;ul&gt;&lt;li&gt;He sometimes refers to Brandon as a sense of wonder&lt;/li&gt;&lt;/ul&gt;" style="text;html=1;align=left;verticalAlign=middle;resizable=0;points=[];autosize=1;strokeColor=none;fillColor=none;" vertex="1" parent="o5h4FEqRYWTWmx7VqW2a-20">
          <mxGeometry y="28" width="350" height="50" as="geometry" />
        </mxCell>
        <mxCell id="o5h4FEqRYWTWmx7VqW2a-22" value="Truth rests not in clever minds," style="swimlane;whiteSpace=wrap;html=1;fillColor=#0050ef;fontColor=#ffffff;strokeColor=#001DBC;" vertex="1" parent="1">
          <mxGeometry x="2200" y="40" width="480" height="200" as="geometry" />
        </mxCell>
        <mxCell id="o5h4FEqRYWTWmx7VqW2a-23" value="Not in tangled, twisted finds." style="swimlane;whiteSpace=wrap;html=1;fillColor=#0050ef;fontColor=#ffffff;strokeColor=#001DBC;" vertex="1" parent="1">
          <mxGeometry x="2200" y="320" width="480" height="200" as="geometry" />
        </mxCell>
        <mxCell id="o5h4FEqRYWTWmx7VqW2a-24" value="Like a river&#39;s steady flow--" style="swimlane;whiteSpace=wrap;html=1;fillColor=#0050ef;fontColor=#ffffff;strokeColor=#001DBC;" vertex="1" parent="1">
          <mxGeometry x="2200" y="600" width="480" height="200" as="geometry" />
        </mxCell>
        <mxCell id="o5h4FEqRYWTWmx7VqW2a-25" value="What you seek, you already know." style="swimlane;whiteSpace=wrap;html=1;fillColor=#0050ef;fontColor=#ffffff;strokeColor=#001DBC;" vertex="1" parent="1">
          <mxGeometry x="2200" y="880" width="480" height="200" as="geometry" />
        </mxCell>
      </root>
    </mxGraphModel>
  </diagram>
</mxfile>
